<svg width="32" height="32" viewBox="0 0 32 32" fill="none" xmlns="http://www.w3.org/2000/svg">
<path d="M30.875 17.125C30.2531 17.125 29.75 16.6219 29.75 16C29.75 14.1437 29.3875 12.3438 28.6688 10.6469C27.9774 9.01331 26.9767 7.52879 25.7219 6.275C24.4695 5.01849 22.9846 4.01761 21.35 3.32812C19.6563 2.6125 17.8563 2.25 16 2.25C15.3781 2.25 14.875 1.74687 14.875 1.125C14.875 0.503125 15.3781 0 16 0C18.1594 0 20.2562 0.421875 22.2281 1.25937C24.1344 2.0625 25.8438 3.21875 27.3125 4.6875C28.7812 6.15625 29.9344 7.86875 30.7406 9.77188C31.575 11.7438 31.9969 13.8406 31.9969 16C32 16.6219 31.4969 17.125 30.875 17.125V17.125Z" fill="#FFD369"/>
</svg>
